<svg width="35" height="37" viewBox="0 0 35 37" fill="none" xmlns="http://www.w3.org/2000/svg">
<path d="M33.2085 18.3078V27.2894C33.2085 27.403 33.1786 27.5146 33.1218 27.6129C33.065 27.7113 32.9833 27.793 32.8849 27.8498L30.9433 28.972L28.6743 30.2819L26.4066 31.5918L24.1389 32.9004L21.8673 34.2103L19.5995 35.5202L17.658 36.6424C17.5596 36.6992 17.448 36.7291 17.3344 36.7291C17.2208 36.7291 17.1092 36.6992 17.0108 36.6424L15.0693 35.5202L12.8015 34.2103L10.5325 32.9004L8.26478 31.5918L5.99705 30.2819L3.72803 28.972L1.78648 27.8498C1.6881 27.793 1.6064 27.7113 1.5496 27.6129C1.4928 27.5146 1.46289 27.403 1.46289 27.2894V23.5448C1.46289 23.4312 1.4928 23.3196 1.5496 23.2212C1.60641 23.1228 1.68811 23.0411 1.78649 22.9843C1.88487 22.9275 1.99648 22.8976 2.11008 22.8976C2.22368 22.8976 2.33528 22.9275 2.43366 22.9843L3.72803 23.7337L5.99705 25.0436L8.26478 26.3522L10.5325 27.6621L12.8002 28.9707L15.0693 30.2806L17.0108 31.4041C17.1092 31.4609 17.2208 31.4909 17.3344 31.4909C17.448 31.4909 17.5596 31.4609 17.658 31.4041L19.5995 30.2806L21.8673 28.972L24.135 27.6634L26.4027 26.3535L28.6704 25.0449L29.9648 24.2955C30.0632 24.2387 30.1449 24.157 30.2017 24.0586C30.2585 23.9602 30.2884 23.8486 30.2884 23.735C30.2884 23.6214 30.2585 23.5098 30.2017 23.4115C30.1449 23.3131 30.0632 23.2314 29.9648 23.1746L28.6704 22.4251L26.4027 21.1152L24.135 19.8066L21.8673 18.4967L19.5995 17.1868L17.337 15.8782L15.0693 14.5683L13.7749 13.8189C13.6765 13.7621 13.5948 13.6804 13.538 13.582C13.4812 13.4836 13.4513 13.372 13.4513 13.2584C13.4513 13.1448 13.4812 13.0332 13.538 12.9349C13.5948 12.8365 13.6765 12.7548 13.7749 12.698L15.0693 11.9498L17.0108 10.8263C17.1092 10.7695 17.2208 10.7396 17.3344 10.7396C17.448 10.7396 17.5596 10.7695 17.658 10.8263L19.5995 11.9498L21.8673 13.2584L24.1363 14.5683L26.404 15.8782L28.6717 17.1868L30.6133 18.3103C30.7117 18.3671 30.8233 18.3971 30.9369 18.3971C31.0505 18.3971 31.1621 18.3671 31.2605 18.3103L32.2364 17.7473C32.3348 17.6902 32.4466 17.66 32.5604 17.6598C32.6741 17.6597 32.786 17.6895 32.8846 17.7464C32.9831 17.8032 33.065 17.885 33.1219 17.9836C33.1787 18.0822 33.2086 18.194 33.2085 18.3078Z" fill="url(#paint0_linear_521_2572)"/>
<path d="M33.2086 10.6387C33.2088 11.0366 33.1043 11.4275 32.9055 11.7722C32.7067 12.1169 32.4206 12.4032 32.0761 12.6022C31.7316 12.8013 31.3407 12.9061 30.9429 12.9061C30.545 12.9061 30.1541 12.8013 29.8096 12.6022C29.4649 12.4036 29.1786 12.1177 28.9795 11.7732C28.7804 11.4287 28.6757 11.0378 28.6758 10.64C28.6757 10.2421 28.7804 9.85124 28.9795 9.50675C29.1786 9.16226 29.4649 8.87632 29.8096 8.67772C30.1544 8.47931 30.5451 8.37488 30.9429 8.37488C31.3406 8.37488 31.7314 8.47931 32.0761 8.67772C32.4204 8.87637 32.7064 9.16218 32.9052 9.50641C33.104 9.85065 33.2087 10.2412 33.2086 10.6387Z" fill="#1A56DB"/>
<path d="M28.6717 7.08566V8.95731C28.6717 9.07091 28.6418 9.18251 28.585 9.28089C28.5282 9.37927 28.4465 9.46097 28.3481 9.51777L26.7276 10.4536C26.6292 10.5104 26.5176 10.5403 26.404 10.5403C26.2904 10.5403 26.1788 10.5104 26.0804 10.4536L24.1388 9.33008L21.8672 8.02148L19.5995 6.71806L17.658 5.59455C17.5596 5.53775 17.448 5.50785 17.3344 5.50785C17.2208 5.50785 17.1092 5.53775 17.0108 5.59455L15.0692 6.71806L12.8002 8.02795L10.5325 9.33655L8.25958 10.64L5.99185 11.9486L4.69749 12.698C4.59911 12.7548 4.51742 12.8365 4.46062 12.9349C4.40382 13.0333 4.37392 13.1449 4.37392 13.2585C4.37392 13.3721 4.40382 13.4837 4.46062 13.5821C4.51742 13.6804 4.59911 13.7621 4.69749 13.8189L5.99185 14.5684L8.25958 15.8783L10.5273 17.1869L12.7963 18.4968L15.0641 19.8067L17.337 21.1153L19.6047 22.4252L20.899 23.1746C20.9974 23.2314 21.0791 23.3131 21.1359 23.4115C21.1927 23.5099 21.2226 23.6215 21.2226 23.7351C21.2226 23.8487 21.1927 23.9603 21.1359 24.0586C21.0791 24.157 20.9974 24.2387 20.899 24.2955L19.6047 25.0437L17.6631 26.1672C17.5647 26.224 17.4531 26.2539 17.3395 26.2539C17.2259 26.2539 17.1143 26.224 17.016 26.1672L15.0744 25.0437L12.8067 23.7351L10.5377 22.4252L8.26993 21.1153L6.0022 19.8067L3.72412 18.4968L1.78258 17.3733C1.68419 17.3165 1.6025 17.2348 1.5457 17.1364C1.48889 17.038 1.45899 16.9264 1.45898 16.8128V9.70416C1.45899 9.59056 1.48889 9.47896 1.5457 9.38057C1.6025 9.28219 1.68419 9.2005 1.78258 9.1437L3.72412 8.02148L5.99185 6.71806L8.25958 5.40816L10.5273 4.09956L12.7963 2.78966L15.0641 1.47977L17.0056 0.357548C17.104 0.300746 17.2156 0.270844 17.3292 0.270844C17.4428 0.270844 17.5544 0.300746 17.6528 0.357548L19.5943 1.47977L21.8672 2.78319L24.1363 4.09308L26.404 5.40169L28.3455 6.5252C28.4444 6.58167 28.5266 6.66322 28.5839 6.76163C28.6411 6.86003 28.6714 6.97181 28.6717 7.08566Z" fill="url(#paint1_linear_521_2572)"/>
<defs>
<linearGradient id="paint0_linear_521_2572" x1="13.8474" y1="29.1817" x2="29.4121" y2="12.3705" gradientUnits="userSpaceOnUse">
<stop stop-color="#231F20"/>
<stop offset="1" stop-color="#1A56DB"/>
</linearGradient>
<linearGradient id="paint1_linear_521_2572" x1="1.78905" y1="16.0155" x2="28.5876" y2="11.2626" gradientUnits="userSpaceOnUse">
<stop stop-color="#231F20"/>
<stop offset="1" stop-color="#1A56DB"/>
</linearGradient>
</defs>
</svg>
